<?xml version="1.0" encoding="utf-8"?>
<!-- Generator: Adobe Illustrator 16.0.0, SVG Export Plug-In . SVG Version: 6.00 Build 0)  -->
<!DOCTYPE svg PUBLIC "-//W3C//DTD SVG 1.1//EN" "http://www.w3.org/Graphics/SVG/1.1/DTD/svg11.dtd">
<svg version="1.1" id="Calque_1" xmlns="http://www.w3.org/2000/svg" xmlns:xlink="http://www.w3.org/1999/xlink" x="0px" y="0px"
	 width="150px" height="150px" viewBox="0 0 150 150" enable-background="new 0 0 150 150" xml:space="preserve">
<circle fill="#FFFFFF" cx="75.253" cy="75.053" r="70.25"/>
<path fill="#1D1D1B" d="M105.012,73.547c0.765-1.841,1.306-3.651,1.612-5.427c0.524-3.023,0.449-6.337-0.225-9.941
	c-0.673-3.604-2.181-7.469-4.521-11.592c-2.34-4.122-5.639-8.21-9.893-12.262c-4.994-4.753-10.132-8.249-15.413-10.483
	c-5.28-2.233-10.576-3.062-15.887-2.483c-4.096,0.424-8.041,1.89-11.835,4.396c-2.719,1.784-6.152,4.854-10.301,9.211L20.173,54.267
	l24.935,23.74c-0.931,2.082-1.528,4.104-1.775,6.064c-0.351,2.791,0.059,5.819,1.233,9.084c1.173,3.266,3.063,6.156,5.667,8.678
	c3.236,3.13,6.917,4.942,11.043,5.435c3.915,0.466,7.883-0.39,11.901-2.536l0.431,0.41c-1.023,3.566-1.149,6.904-0.354,10.008
	c0.852,3.319,2.465,6.129,4.842,8.429c2.554,2.47,5.702,4.11,9.448,4.919c3.746,0.808,7.423,0.474,11.03-1.003
	c3.607-1.479,7.468-4.341,11.576-8.588l20.182-20.86L105.012,73.547z M57.607,94.21c-1.77-1.713-2.977-3.59-3.62-5.632
	c-0.282-0.896-0.447-1.768-0.53-2.621l0,0c-0.023-0.244-0.037-0.485-0.045-0.726c-0.01-0.305-0.015-0.607,0.003-0.906
	c0.005-0.13,0.021-0.259,0.032-0.388c0.038-0.39,0.084-0.776,0.166-1.156c0.393-1.823,1.257-3.729,2.593-5.717
	c0.125-0.188,0.28-0.4,0.448-0.623c0.04-0.054,0.082-0.107,0.124-0.163c0.173-0.224,0.359-0.459,0.572-0.714
	c0.836-1.005,1.979-2.258,3.434-3.762l6.75-6.978l1.726-1.783l0.024-13.155L54.222,65.455c-1.263,1.306-2.411,2.577-3.444,3.815
	L33.843,53.148l11.208-11.772c4.197-4.408,7.625-7.242,10.281-8.501c3.69-1.733,8.023-2.063,13.002-0.991
	c4.979,1.073,10.398,4.398,16.259,9.977c4.229,4.028,7.361,7.945,9.396,11.751c2.035,3.807,3.094,7.427,3.179,10.858
	c0.012,0.473-0.011,0.954-0.052,1.438L81.182,50.492l-0.025,14.22l11.788,11.405l0,0l0.347,0.335l-3.918,4.05
	c-0.001,0.001-0.001,0.001-0.002,0.002l-8.52,8.806c-1.625,1.681-3.136,3.098-4.54,4.27l0,0c-0.757,0.632-1.481,1.189-2.175,1.676
	c-0.021,0.014-0.044,0.032-0.065,0.047c-0.308,0.214-0.606,0.408-0.901,0.592c-0.046,0.029-0.097,0.064-0.143,0.093
	c-0.333,0.206-0.659,0.393-0.975,0.559c-0.443,0.233-0.89,0.43-1.336,0.606c-0.079,0.03-0.156,0.062-0.233,0.091
	c-0.455,0.169-0.911,0.314-1.369,0.425c-0.015,0.004-0.029,0.007-0.043,0.01c-0.983,0.234-1.975,0.337-2.976,0.309
	c-0.512-0.016-1.025-0.056-1.542-0.14C61.996,97.428,59.679,96.216,57.607,94.21z M105.902,110.169
	c-3.865,3.994-6.851,6.563-8.96,7.705c-2.107,1.142-4.292,1.477-6.552,1.003c-2.259-0.473-4.313-1.603-6.158-3.388
	c-1.947-1.883-3.106-3.923-3.478-6.118c-0.372-2.196,0.067-4.499,1.321-6.907c0.554-1.079,1.501-2.412,2.823-3.986l10.553-11.083
	c0.369-0.389,0.728-0.775,1.079-1.16l3.321-3.434l16.801,16.256L105.902,110.169z"/>
<path fill="#FFFFFF" d="M75.253,148C35.03,148,2.306,115.276,2.306,75.053c0-40.223,32.724-72.947,72.947-72.947
	c40.224,0,72.947,32.724,72.947,72.947C148.2,115.276,115.477,148,75.253,148z M75.253,3.021c-39.719,0-72.032,32.313-72.032,72.032
	c0,39.719,32.313,72.032,72.032,72.032c39.719,0,72.032-32.313,72.032-72.032C147.285,35.334,114.972,3.021,75.253,3.021z"/>
</svg>
